<?xml version="1.0" encoding="UTF-8"?>
<svg xmlns="http://www.w3.org/2000/svg" baseProfile="tiny" version="1.2" xmlns:xlink="http://www.w3.org/1999/xlink" viewBox="0 0 927.6 362">
  <defs>
    <linearGradient id="linear-gradient" x1="962.3" y1="301.8" x2="109.9" y2="-190.3" gradientUnits="userSpaceOnUse">
      <stop offset="0" stop-color="#f10aca"/>
      <stop offset="0" stop-color="#eb0bc7"/>
      <stop offset=".2" stop-color="#c214b2"/>
      <stop offset=".3" stop-color="#a01ca0"/>
      <stop offset=".5" stop-color="#862393"/>
      <stop offset=".6" stop-color="#732789"/>
      <stop offset=".8" stop-color="#682a83"/>
      <stop offset="1" stop-color="#652b82"/>
    </linearGradient>
    <linearGradient id="linear-gradient-2" x1="943.7" y1="333.9" x2="91.3" y2="-158.2" xlink:href="#linear-gradient"/>
    <linearGradient id="linear-gradient-3" x1="890.7" y1="425.7" x2="38.3" y2="-66.4" xlink:href="#linear-gradient"/>
    <linearGradient id="linear-gradient-4" x1="846.2" y1="502.8" x2="-6.2" y2="10.7" xlink:href="#linear-gradient"/>
    <linearGradient id="linear-gradient-5" x1="809.5" y1="566.4" x2="-42.9" y2="74.2" xlink:href="#linear-gradient"/>
    <linearGradient id="linear-gradient-6" x1="790.4" y1="599.4" x2="-62" y2="107.3" xlink:href="#linear-gradient"/>
  </defs>
  <!-- Generator: Adobe Illustrator 28.7.1, SVG Export Plug-In . SVG Version: 1.2.0 Build 142)  -->
  <g>
    <g id="_8">
      <path d="M857.7,133.6c-16.2.9-29.8,5.5-40,13.5-4,3.1-9.8.6-9.8-4.5v-.9c0-3.3-2.7-5.9-5.9-5.9h-33.1c-3.3,0-5.9,2.6-5.9,5.9v150.5c0,3.3,2.7,5.9,5.9,5.9h35.2c3.3,0,5.9-2.6,5.9-5.9v-70.7c0-31.1,17.2-45.2,43.1-45.2s2.9,0,4.3.1c3.4.2,6.2-2.5,6.2-5.9v-31c0-3.3-2.8-6.1-6.1-5.9Z" fill="url(#linear-gradient)"/>
      <path d="M728.8,263.6h0c-1.2-3.2-4.9-4.5-8.1-3.1-4.1,1.8-8.7,2.7-13.3,2.7-12.7,0-20.2-7.5-20.2-21.4v-96.4c0-3.2,2.6-5.9,5.9-5.9h28.7c3.2,0,5.9-2.6,5.9-5.9v-24.5c0-3.2-2.6-5.9-5.9-5.9h-28.7c-3.2,0-5.9-2.6-5.9-5.9v-27.8c0-3.2-2.6-5.9-5.9-5.9h-35.3c-3.2,0-5.9,2.6-5.9,5.9v27.8c0,3.2-2.6,5.9-5.9,5.9h-13.3c-3.2,0-5.9,2.6-5.9,5.9v24.5c0,3.2,2.6,5.9,5.9,5.9h13.3c3.2,0,5.9,2.6,5.9,5.9v97c0,38.6,22.3,58.2,60.6,58.2s24.5-2.4,33.8-7.5c2.6-1.4,3.8-4.5,2.7-7.3l-8.5-22.2Z" fill="url(#linear-gradient-2)"/>
      <path d="M504.8,184.1h0c0-8.5,9-15.1,30.2-15.1s27.2,2.4,41.4,9.3c3,1.4,6.5.3,7.9-2.6l10.7-22.9c1.4-3,.1-6.5-2.9-7.9-15.4-7.3-37.3-11.4-57.2-11.4-47.4,0-75.1,21.7-75.1,52.5,0,64.9,98,37.7,98,64.3s-8.1,14.8-29.9,14.8-36.8-4.9-51-12.5c-3-1.6-6.7-.4-8.1,2.7l-10.7,23c-1.3,2.9-.2,6.2,2.5,7.7,15.7,8.5,40.7,14.6,65.5,14.6,48.6,0,76.6-21.4,76.6-51.6,0-64-98-37.1-98-64.9Z" fill="url(#linear-gradient-3)"/>
      <path d="M351.3,133.4h0c-51.6,0-89.3,34.7-89.3,83.6s37.7,83.6,89.3,83.6,89-34.7,89-83.6-37.4-83.6-89-83.6ZM394.2,243.2h0c-6.5,24.4-31.8,38.8-56.5,32.3s-39.6-31.7-33.1-56.1c6.5-24.4,39.6-68.3,64.4-61.7,24.8,6.6,31.8,61.1,25.3,85.5Z" fill="url(#linear-gradient-4)"/>
      <path d="M166.1,187.6c0-7-5.7-12.7-12.7-12.7s-12.7,5.7-12.7,12.7,5.7,12.7,12.7,12.7,12.7-5.7,12.7-12.7Z" fill="url(#linear-gradient-5)"/>
      <path d="M162.4,133.5c-17.1,0-32.4,4.5-44.3,13.1-4,2.8-9.4.1-9.4-4.7s-2.6-5.9-5.9-5.9h-33.1c-3.3,0-5.9,2.7-5.9,5.9v150.5c0,3.3,2.7,5.9,5.9,5.9h35.2c3.2,0,5.8-2.6,5.9-5.8v-8.8c0-65.6-34.7-114.8-.4-121.3,31.4-6,67-3.1,67.4,21.1,0,2.1.3,8.3,9,11.8,5.2,2,13.2,2.8,23.6,2.5,0,0,9.5-.8,9.5,8.9s-21.3,11.2-21.3,11.2c-7,.3-23.7-1.6-33.1,1.2-5,1.5-9.4,4.4-12,9.5-4.4,8.7-6.5,27.7-6.8,47.5v16.2c0,3.3,2.7,5.9,5.9,5.9h71.1c3.3,0,5.9-2.7,5.9-5.9v-87h0c0-49.5-29-71.8-67.3-71.8Z" fill="url(#linear-gradient-6)"/>
    </g>
  </g>
</svg>